{
    "accessors" : [
        {
            "bufferView" : 0,
            "componentType" : 5121,
            "count" : 36,
            "max" : [
                23
            ],
            "min" : [
                0
            ],
            "type" : "SCALAR"
        },
        {
            "bufferView" : 1,
            "componentType" : 5126,
            "count" : 24,
            "max" : [
                1.0,
                1.0,
                1.0
            ],
            "min" : [
                -1.0,
                -1.0,
                -1.0
            ],
            "type" : "VEC3"
        },
        {
            "bufferView" : 2,
            "componentType" : 5126,
            "count" : 24,
            "max" : [
                1.0,
                1.0,
                1.0
            ],
            "min" : [
                -1.0,
                -1.0,
                -1.0
            ],
            "type" : "VEC3"
        },
        {
            "bufferView" : 3,
            "componentType" : 5121,
            "count" : 36,
            "max" : [
                23
            ],
            "min" : [
                0
            ],
            "type" : "SCALAR"
        },
        {
            "bufferView" : 4,
            "componentType" : 5126,
            "count" : 24,
            "max" : [
                1.0,
                1.0,
                1.0
            ],
            "min" : [
                -1.0,
                -1.0,
                -1.0
            ],
            "type" : "VEC3"
        },
        {
            "bufferView" : 5,
            "componentType" : 5126,
            "count" : 24,
            "max" : [
                1.0,
                1.0,
                1.0
            ],
            "min" : [
                -1.0,
                -1.0,
                -1.0
            ],
            "type" : "VEC3"
        },
        {
            "bufferView" : 6,
            "componentType" : 5121,
            "count" : 36,
            "max" : [
                23
            ],
            "min" : [
                0
            ],
            "type" : "SCALAR"
        },
        {
            "bufferView" : 7,
            "componentType" : 5126,
            "count" : 24,
            "max" : [
                1.0,
                1.0,
                1.0
            ],
            "min" : [
                -1.0,
                -1.0,
                -1.0
            ],
            "type" : "VEC3"
        },
        {
            "bufferView" : 8,
            "componentType" : 5126,
            "count" : 24,
            "max" : [
                1.0,
                1.0,
                1.0
            ],
            "min" : [
                -1.0,
                -1.0,
                -1.0
            ],
            "type" : "VEC3"
        },
        {
            "bufferView" : 9,
            "componentType" : 5121,
            "count" : 30,
            "max" : [
                19
            ],
            "min" : [
                0
            ],
            "type" : "SCALAR"
        },
        {
            "bufferView" : 10,
            "componentType" : 5126,
            "count" : 20,
            "max" : [
                1.0,
                1.0,
                1.0
            ],
            "min" : [
                -1.0,
                -1.0,
                -1.0
            ],
            "type" : "VEC3"
        },
        {
            "bufferView" : 11,
            "componentType" : 5126,
            "count" : 20,
            "max" : [
                0.0,
                1.0,
                1.0
            ],
            "min" : [
                -1.0,
                -1.0,
                -1.0
            ],
            "type" : "VEC3"
        },
        {
            "bufferView" : 12,
            "componentType" : 5121,
            "count" : 6,
            "max" : [
                3
            ],
            "min" : [
                0
            ],
            "type" : "SCALAR"
        },
        {
            "bufferView" : 13,
            "componentType" : 5126,
            "count" : 4,
            "max" : [
                1.0,
                1.0,
                1.0
            ],
            "min" : [
                1.0,
                -1.0,
                -1.0
            ],
            "type" : "VEC3"
        },
        {
            "bufferView" : 14,
            "componentType" : 5126,
            "count" : 4,
            "max" : [
                1.0,
                0.0,
                0.0
            ],
            "min" : [
                1.0,
                0.0,
                0.0
            ],
            "type" : "VEC3"
        },
        {
            "bufferView" : 15,
            "componentType" : 5121,
            "count" : 30,
            "max" : [
                19
            ],
            "min" : [
                0
            ],
            "type" : "SCALAR"
        },
        {
            "bufferView" : 16,
            "componentType" : 5126,
            "count" : 20,
            "max" : [
                1.0,
                1.0,
                1.0
            ],
            "min" : [
                -1.0,
                -1.0129646062850952,
                -1.0
            ],
            "type" : "VEC3"
        },
        {
            "bufferView" : 17,
            "componentType" : 5126,
            "count" : 20,
            "max" : [
                0.0,
                1.0,
                1.0
            ],
            "min" : [
                -1.0,
                -1.0,
                -1.0
            ],
            "type" : "VEC3"
        },
        {
            "bufferView" : 18,
            "componentType" : 5121,
            "count" : 6,
            "max" : [
                3
            ],
            "min" : [
                0
            ],
            "type" : "SCALAR"
        },
        {
            "bufferView" : 19,
            "componentType" : 5126,
            "count" : 4,
            "max" : [
                1.0,
                1.0,
                1.0
            ],
            "min" : [
                1.0,
                -1.0129646062850952,
                -1.0
            ],
            "type" : "VEC3"
        },
        {
            "bufferView" : 20,
            "componentType" : 5126,
            "count" : 4,
            "max" : [
                1.0,
                0.0,
                0.0
            ],
            "min" : [
                1.0,
                0.0,
                0.0
            ],
            "type" : "VEC3"
        },
        {
            "bufferView" : 21,
            "componentType" : 5121,
            "count" : 6,
            "max" : [
                3
            ],
            "min" : [
                0
            ],
            "type" : "SCALAR"
        },
        {
            "bufferView" : 22,
            "componentType" : 5126,
            "count" : 4,
            "max" : [
                1.0,
                0.0,
                1.0
            ],
            "min" : [
                -1.0,
                0.0,
                -1.0
            ],
            "type" : "VEC3"
        },
        {
            "bufferView" : 23,
            "componentType" : 5126,
            "count" : 4,
            "max" : [
                0.0,
                1.0,
                -0.0
            ],
            "min" : [
                0.0,
                1.0,
                -0.0
            ],
            "type" : "VEC3"
        }
    ],
    "asset" : {
        "generator" : "Khronos Blender glTF 2.0 exporter",
        "version" : "2.0"
    },
    "bufferViews" : [
        {
            "buffer" : 0,
            "byteLength" : 36,
            "byteOffset" : 0,
            "target" : 34963
        },
        {
            "buffer" : 0,
            "byteLength" : 288,
            "byteOffset" : 36,
            "target" : 34962
        },
        {
            "buffer" : 0,
            "byteLength" : 288,
            "byteOffset" : 324,
            "target" : 34962
        },
        {
            "buffer" : 0,
            "byteLength" : 36,
            "byteOffset" : 612,
            "target" : 34963
        },
        {
            "buffer" : 0,
            "byteLength" : 288,
            "byteOffset" : 648,
            "target" : 34962
        },
        {
            "buffer" : 0,
            "byteLength" : 288,
            "byteOffset" : 936,
            "target" : 34962
        },
        {
            "buffer" : 0,
            "byteLength" : 36,
            "byteOffset" : 1224,
            "target" : 34963
        },
        {
            "buffer" : 0,
            "byteLength" : 288,
            "byteOffset" : 1260,
            "target" : 34962
        },
        {
            "buffer" : 0,
            "byteLength" : 288,
            "byteOffset" : 1548,
            "target" : 34962
        },
        {
            "buffer" : 0,
            "byteLength" : 30,
            "byteOffset" : 1836,
            "target" : 34963
        },
        {
            "buffer" : 0,
            "byteLength" : 240,
            "byteOffset" : 1868,
            "target" : 34962
        },
        {
            "buffer" : 0,
            "byteLength" : 240,
            "byteOffset" : 2108,
            "target" : 34962
        },
        {
            "buffer" : 0,
            "byteLength" : 6,
            "byteOffset" : 2348,
            "target" : 34963
        },
        {
            "buffer" : 0,
            "byteLength" : 48,
            "byteOffset" : 2356,
            "target" : 34962
        },
        {
            "buffer" : 0,
            "byteLength" : 48,
            "byteOffset" : 2404,
            "target" : 34962
        },
        {
            "buffer" : 0,
            "byteLength" : 30,
            "byteOffset" : 2452,
            "target" : 34963
        },
        {
            "buffer" : 0,
            "byteLength" : 240,
            "byteOffset" : 2484,
            "target" : 34962
        },
        {
            "buffer" : 0,
            "byteLength" : 240,
            "byteOffset" : 2724,
            "target" : 34962
        },
        {
            "buffer" : 0,
            "byteLength" : 6,
            "byteOffset" : 2964,
            "target" : 34963
        },
        {
            "buffer" : 0,
            "byteLength" : 48,
            "byteOffset" : 2972,
            "target" : 34962
        },
        {
            "buffer" : 0,
            "byteLength" : 48,
            "byteOffset" : 3020,
            "target" : 34962
        },
        {
            "buffer" : 0,
            "byteLength" : 6,
            "byteOffset" : 3068,
            "target" : 34963
        },
        {
            "buffer" : 0,
            "byteLength" : 48,
            "byteOffset" : 3076,
            "target" : 34962
        },
        {
            "buffer" : 0,
            "byteLength" : 48,
            "byteOffset" : 3124,
            "target" : 34962
        }
    ],
    "buffers" : [
        {
            "byteLength" : 3172,
            "uri" : "demo.bin"
        }
    ],
    "materials" : [
        {
            "name" : "Material",
            "pbrMetallicRoughness" : {
                "baseColorFactor" : [
                    0.24666436086094912,
                    0.640000066757203,
                    0.0069372818907690315,
                    1.0
                ],
                "metallicFactor" : 0.0
            }
        },
        {
            "name" : "Material.001",
            "pbrMetallicRoughness" : {
                "baseColorFactor" : [
                    0.640000066757203,
                    0.14969713910962845,
                    0.025753733899499975,
                    1.0
                ],
                "metallicFactor" : 0.0
            }
        },
        {
            "name" : "Material.002",
            "pbrMetallicRoughness" : {
                "baseColorFactor" : [
                    0.640000066757203,
                    0.4663488934390081,
                    0.07263352979173554,
                    1.0
                ],
                "metallicFactor" : 0.0
            }
        }
    ],
    "meshes" : [
        {
            "name" : "Cube.004",
            "primitives" : [
                {
                    "attributes" : {
                        "NORMAL" : 2,
                        "POSITION" : 1
                    },
                    "indices" : 0
                }
            ]
        },
        {
            "name" : "Cube.003",
            "primitives" : [
                {
                    "attributes" : {
                        "NORMAL" : 5,
                        "POSITION" : 4
                    },
                    "indices" : 3
                }
            ]
        },
        {
            "name" : "Cube.002",
            "primitives" : [
                {
                    "attributes" : {
                        "NORMAL" : 8,
                        "POSITION" : 7
                    },
                    "indices" : 6
                }
            ]
        },
        {
            "name" : "Cube.005",
            "primitives" : [
                {
                    "attributes" : {
                        "NORMAL" : 11,
                        "POSITION" : 10
                    },
                    "indices" : 9,
                    "material" : 0
                },
                {
                    "attributes" : {
                        "NORMAL" : 14,
                        "POSITION" : 13
                    },
                    "indices" : 12,
                    "material" : 1
                }
            ]
        },
        {
            "name" : "Cube.006",
            "primitives" : [
                {
                    "attributes" : {
                        "NORMAL" : 17,
                        "POSITION" : 16
                    },
                    "indices" : 15,
                    "material" : 0
                },
                {
                    "attributes" : {
                        "NORMAL" : 20,
                        "POSITION" : 19
                    },
                    "indices" : 18,
                    "material" : 1
                }
            ]
        },
        {
            "name" : "Plane.005",
            "primitives" : [
                {
                    "attributes" : {
                        "NORMAL" : 23,
                        "POSITION" : 22
                    },
                    "indices" : 21,
                    "material" : 2
                }
            ]
        }
    ],
    "nodes" : [
        {
            "name" : "Camera",
            "rotation" : [
                0.483536034822464,
                0.33687159419059753,
                -0.20870360732078552,
                0.7804827094078064
            ],
            "translation" : [
                7.475255489349365,
                5.026973724365234,
                6.136526107788086
            ]
        },
        {
            "mesh" : 2,
            "name" : "Cube",
            "rotation" : [
                -0.6948129534721375,
                -0.0,
                -0.7191904783248901,
                0.0
            ],
            "scale" : [
                -6.596399307250977,
                -0.9999999403953552,
                -0.20542685687541962
            ],
            "translation" : [
                -2.1031157970428467,
                1.267545223236084,
                -0.9792492389678955
            ]
        },
        {
            "mesh" : 1,
            "name" : "Cube.001",
            "rotation" : [
                0.0,
                1.0,
                -0.0,
                0.0
            ],
            "scale" : [
                3.6994245052337646,
                0.9999999403953552,
                0.20516107976436615
            ],
            "translation" : [
                1.6088547706604004,
                1.2074081897735596,
                -7.507454872131348
            ]
        },
        {
            "mesh" : 0,
            "name" : "Cube.002",
            "rotation" : [
                0.0,
                1.0,
                -0.0,
                0.0
            ],
            "scale" : [
                3.6994245052337646,
                0.9999999403953552,
                0.20516107976436615
            ],
            "translation" : [
                1.5049188137054443,
                1.209451675415039,
                5.380149841308594
            ]
        },
        {
            "mesh" : 3,
            "name" : "Cube.003",
            "scale" : [
                1.0,
                1.6196516752243042,
                1.0
            ],
            "translation" : [
                0.36660873889923096,
                1.8121554851531982,
                1.6546974182128906
            ]
        },
        {
            "mesh" : 4,
            "name" : "Cube.004",
            "scale" : [
                1.0,
                1.6196516752243042,
                1.0
            ],
            "translation" : [
                1.1472455263137817,
                1.8526418209075928,
                -3.415816068649292
            ]
        },
        {
            "name" : "Lamp",
            "rotation" : [
                0.16907575726509094,
                0.7558802962303162,
                -0.27217137813568115,
                0.570947527885437
            ],
            "scale" : [
                1.0,
                1.0,
                0.9999999403953552
            ],
            "translation" : [
                4.076245307922363,
                5.903861999511719,
                -1.0054539442062378
            ]
        },
        {
            "mesh" : 5,
            "name" : "Plane",
            "scale" : [
                7.9156951904296875,
                7.9156951904296875,
                7.9156951904296875
            ],
            "translation" : [
                0.2608410120010376,
                0.2459203004837036,
                -0.4674030542373657
            ]
        }
    ],
    "scene" : 0,
    "scenes" : [
        {
            "name" : "Scene",
            "nodes" : [
                4,
                1,
                7,
                6,
                0,
                2,
                3,
                5
            ]
        }
    ]
}
